<?xml version="1.0" encoding="utf-8"?>
<!-- Generator: Adobe Illustrator 16.0.0, SVG Export Plug-In . SVG Version: 6.00 Build 0)  -->
<!DOCTYPE svg PUBLIC "-//W3C//DTD SVG 1.1//EN" "http://www.w3.org/Graphics/SVG/1.1/DTD/svg11.dtd">
<svg version="1.1" id="Layer_1" xmlns="http://www.w3.org/2000/svg" xmlns:xlink="http://www.w3.org/1999/xlink" x="0px" y="0px"
	 width="416.14px" height="435.119px" viewBox="1.359 21.554 416.14 435.119" enable-background="new 1.359 21.554 416.14 435.119"
	 xml:space="preserve">
<path d="M238.757,432.596c-0.699,0.352-1.217,0.084-1.763-0.399c-1.054-0.941-1.105-0.925-1.74,0.445
	c-0.235,0.509-0.664,0.828-0.98,1.253c-0.757,1.019-0.871,1.069-1.715,0.148c-0.899-0.981-1.969-0.539-2.959-0.529
	c-0.576,0.005-1.069,0.038-1.437-0.42c-0.381-0.476-0.939-0.646-1.433-0.602c-2.262,0.208-4.109-1.147-6.203-1.547
	c-0.99,0.129-1.915-0.059-2.761-0.6c-0.078-0.064-0.156-0.126-0.236-0.19c-0.138-0.112-0.317-0.128-0.476-0.192
	c-0.091-0.03-0.173-0.076-0.245-0.139c-0.811-0.411-1.713-0.486-2.574-0.704c-0.162,0.014-0.325,0.017-0.486,0.024
	c-0.248,0.024-0.494,0.034-0.743,0.018c-1.464-0.479-2.872-0.322-3.926,0.801c-1.351,1.437-3.027,2.032-4.879,2.343
	c-0.321,0.019-0.643,0.037-0.964,0.057c-0.516-0.002-1.078-0.124-1.35,0.514c-0.031,0.423-0.304,0.688-0.608,0.935
	c-1.807,2.096-4.162,3.66-5.583,6.153c-0.815,1.43-2.536,1.018-3.924,1.17c-0.906,0.23-1.683,0.734-2.49,1.178
	c-0.509,0.183-0.959,0.483-1.437,0.723c-1.392,0.481-2.88,0.83-3.395,2.503c-0.207,0.399-0.449,0.776-0.704,1.147
	c-2.052,2.469-4.539,3.918-7.893,3.485c-0.759-0.099-1.527,0.156-2.255,0.426c-0.803,0.097-1.627-0.167-2.421,0.126
	c-0.157,0.041-0.317,0.067-0.477,0.093c-0.801,0.147-1.601,0.281-2.411,0.356c-0.163,0.021-0.325,0.025-0.489,0.022
	c-0.991,0.007-1.857-0.6-2.853-0.583c-1.073,0.356-2.073,0.858-3.076,1.394c-1.355,0.725-2.733,1.462-4.304,1.657
	c-0.06,0.008-0.129,0.005-0.175,0.037c-1.778,1.281-3.892,0.866-5.867,1.166c-0.054,0.007-0.103,0.055-0.155,0.086
	c-0.985,0.156-1.782,0.696-2.562,1.271c-3.312,0.76-6.488,0.788-9.188-1.719c-2.643-1.263-5.539-0.739-8.296-1.174
	c-0.59,0.01-1.18,0.02-1.771,0.031c-0.411-0.005-0.66-0.527-1.118-0.362c-1.691,0.606-3.336,0.041-4.994-0.188
	c-1.997-0.358-3.576-1.763-5.541-2.194c-0.156-0.064-0.307-0.139-0.451-0.229c-0.151-0.083-0.287-0.184-0.41-0.304
	c-0.5-0.539-1.212-0.364-1.819-0.541c-1.008-0.295-1.487-0.782-0.57-1.725c0.139-0.102,0.29-0.187,0.446-0.262
	c2.136-0.961,3.177-2.799,3.682-4.927c0.264-1.12,0.846-1.528,1.859-1.477c1.098,0.059,2.134-0.159,3.156-0.521
	c0.161-0.039,0.327-0.065,0.493-0.081c1.616-0.401,2.347-1.634,2.878-3.054c1.01-0.939,2.022-1.877,3.442-2.168
	c0.994-0.206,1.052-0.913,0.742-1.638c-0.418-0.979-0.714-2.018-1.545-2.808c-1.011-0.962-1.464-2.315-2.188-3.482
	c-0.191-0.282-0.354-0.578-0.458-0.904c-0.016-1.881-0.052-3.753-2.05-4.781c-0.104-0.114-0.192-0.24-0.27-0.372
	c-0.074-0.126-0.137-0.257-0.197-0.391c-0.107-0.183-0.243-0.343-0.421-0.465c-0.135-0.066-0.261-0.139-0.391-0.213
	c-0.414-0.182-0.713-0.563-1.208-0.67c-0.266,0.505-0.245,1.083-0.388,1.616c-0.233,1.229-1.066,1.968-2.217,1.995
	c-1.26,0.031-2.364-0.342-3.085-1.711c-0.742-1.403-1.682-2.596,0.391-4.076c-1.467-0.103-2.589,1.312-3.414-0.138
	c-0.533-0.933,0.494-1.348,0.941-2.277c-3.146-0.94-5.57-3.02-8.039-5.032c-0.125-0.118-0.229-0.253-0.32-0.398
	c-1.204-2.495-2.772-3.121-5.301-2.09c-0.623,0.254-1.241,0.428-1.9,0.185c-0.584-0.216-1.074-0.569-1.172-1.225
	c-0.099-0.646,0.389-0.938,0.871-1.204c1.184-0.662,2.408-1.229,3.702-1.666c-0.14-0.327-0.573-0.396-0.704-0.745
	c0.02-1.322-0.572-2.333-1.595-3.122c-0.775-0.356-1.214,0.044-1.547,0.683c-0.179,0.202-0.399,0.335-0.657,0.412
	c-0.934,0.208-1.331-0.299-1.433-1.121c-0.115-0.935-0.604-1.659-1.2-2.334c-1.278-1.588-3.29-2.102-4.823-3.29
	c-2.229-1.725-4.708-2.42-7.458-2.4c-0.357,0.003-0.863,0.028-1.023-0.221c-0.802-1.247-2.338-1.454-3.307-2.44
	c-0.139-0.209-0.235-0.438-0.282-0.682c-0.05-0.806-0.571-0.553-1.023-0.449c-0.983,0.229-1.963,0.537-2.976,0.138
	c-2.303-0.881-4.131-2.441-5.896-4.092c-0.495-0.268-1.03-0.41-1.576-0.524c-0.155-0.039-0.3-0.104-0.438-0.182
	c-0.45-0.307-0.772-0.767-1.248-1.046c-0.138-0.084-0.265-0.182-0.388-0.285c-0.734-0.973-1.647-1.612-2.921-1.597
	c-0.411-0.083-0.786-0.253-1.151-0.449c-1.121-0.483-2.273-0.906-3.275-1.629c-0.328-0.225-0.6-0.502-0.807-0.844
	c-0.073-0.122-0.133-0.255-0.183-0.388c-0.095-0.246-0.209-0.483-0.445-0.633c-0.124-0.052-0.245-0.105-0.371-0.155
	c-0.135-0.043-0.263-0.102-0.386-0.167c-0.127-0.076-0.242-0.164-0.35-0.263c-0.167-0.152-0.316-0.316-0.463-0.484
	c-0.109-0.11-0.21-0.226-0.314-0.34c-0.274-0.295-0.608-0.512-0.953-0.715c-0.895-0.68-2.082-1.035-2.499-2.245
	c-0.03-0.864-0.322-1.803-0.92-2.24c-1.6-1.174-1.542-2.863-1.625-4.468c-0.05-0.954-0.162-1.853-0.468-2.743
	c-0.024-0.182-0.016-0.36,0.013-0.539c0.003-0.242,0.041,0.064,0.04-0.176c-0.026-2.75-0.026-2.75,2.548-3.812
	c-0.108-0.502-0.512-0.832-0.862-1.084c-3.259-2.343-5.298-5.767-7.828-8.751c-0.313-0.367-0.655-0.69-1.082-0.919
	c-1.218-0.81-2.539-0.397-3.812-0.271c-1.203,0.118-2.383,0.16-3.514-0.3c-1.284-0.519-1.619-1.429-0.902-2.523
	c0.758-1.158,1.924-2.07,1.765-3.71c-0.047-0.479,0.554-0.878,0.996-1.192c0.979-0.603,2.22-0.89,2.611-2.188
	c0.623-1.103-0.169-1.309-0.964-1.512c-1.067-0.487-1.62-1.468-2.278-2.349c-0.102-0.152-0.186-0.317-0.261-0.484
	c-0.311-0.958-0.96-1.579-1.9-1.912c-0.568-0.203-1.04-0.528-1.334-1.073c-0.583-1.456-1.838-2.306-2.978-3.247
	c-0.457-0.378-0.989-0.661-1.296-1.2c-0.285-0.449-0.603-0.88-0.829-1.364c-0.218-0.653-0.652-1.19-0.969-1.79
	c-0.068-0.152-0.114-0.312-0.142-0.476c-0.022-0.752,0.187-1.598-0.78-1.982c-0.139-0.085-0.263-0.187-0.382-0.294
	c-0.348-0.332-0.625-0.729-0.979-1.056c-0.18-0.156-0.373-0.297-0.563-0.442c-0.32-0.247-0.586-0.546-0.859-0.839
	c-0.221-0.233-0.478-0.427-0.742-0.612c-0.136-0.094-0.261-0.202-0.381-0.314c-1.562-1.744-4.73-2.343-7.188-1.351
	c-0.98,0.393-1.816,0.919-1.882,2.114c-0.043,0.772,0.037,1.704-0.873,1.944c-0.993,0.263-1.347-0.76-1.91-1.322
	c-0.229-0.29-0.443-0.588-0.604-0.92c-0.083-0.169-0.134-0.346-0.159-0.532c0.386-2.698-0.94-4.682-2.691-6.503
	c-0.989-1.028-1.834-2.176-2.89-3.166c-1.244-1.161-0.91-2.405,0.561-2.92c2.048,0.627,3.604,2.236,5.664,2.846
	c2.75,2.662,5.218,3.181,8.475,1.773c0.148-0.066,0.303-0.119,0.456-0.167c0.93-0.371,1.982-0.476,2.718-1.262
	c0.091-0.127,0.189-0.249,0.287-0.371c0.194-0.253,0.379-0.513,0.602-0.743c0.121-0.11,0.255-0.204,0.397-0.287
	c0.802-0.449,1.508-1.007,2.026-1.779c0.322-0.407,0.721-0.738,1.104-1.085c0.881-0.833,1.343-1.96,2.028-2.932
	c1.279-0.718,1.69-1.397,0.649-2.874c-1.024-1.452-1.856-3.15-2.082-5.018c0.58-1.923,1.299-3.732,3.499-4.341
	c0.314-2.009-1.178-4.554-3.342-5.679c-1.453-1.119-2.219-2.662-2.519-4.408c-0.215-1.253-0.8-2.219-1.718-3.032
	c-0.382-0.603-0.958-0.856-1.649-0.902c-0.243-0.109-0.414-0.289-0.522-0.531c-0.08-0.248-0.082-0.5-0.045-0.754
	c0.6-1.44-0.045-3.16,0.998-4.505c0.085-0.152,0.184-0.293,0.287-0.434c0.803-1.292,1.752-1.719,3.399-1.336
	c2.263,0.525,4.54,0.803,6.178,2.684c0.581,0.628,0.37,1.434,0.485,2.167c0.015,0.156,0.014,0.316,0.006,0.477
	c-0.002,0.157-0.013,0.314-0.023,0.472c0.051,0.97,0.792,0.784,1.392,0.829c1.682,0.072,1.682,0.072,1.583-2.262
	c-0.004-0.157-0.001-0.316-0.002-0.473c-0.365-1.03-0.245-2.237-1.148-3.066c-1.538-1.893-2.675-3.851-1.315-6.361
	c0.25-0.46,0.161-1.056,0.104-1.595c-0.255-1.431-1.053-1.84-2.426-1.386c-1.803,0.597-3.479-0.29-3.703-2.368
	c-0.988-1.655-1.371-3.342-0.455-5.187c0.325-0.656-0.02-1.338-0.175-2.04c-0.477-2.173-1.755-4.371-0.193-6.611
	c0.015-0.157,0.013-0.315-0.015-0.472c-0.04-0.154-0.075-0.307-0.119-0.458c-0.27-0.805-0.905-1.314-1.497-1.86
	c-0.587-1.792,0.148-3.503,1.99-4.651c0.84-0.234,1.593-0.685,2.404-0.997c0.655-0.253,1.038-0.73,0.913-1.491
	c-0.002-0.171,0.025-0.335,0.07-0.498c0.24-0.726,0.752-1.114,1.498-1.216c1.224-0.37,3.104,0.201,2.988-2.09
	c0.537-1.074,0.262-2.168,0.067-3.259c-0.123-0.913,0.654-1.878-0.166-2.751c-1.127-2.1-0.912-4.361-0.747-6.597
	c0.222-2.977,0.71-5.894,2.389-8.463c0.323-0.818,0.857-1.565,0.846-2.497c0.379-1.002,0.141-2.052,0.238-3.077
	c0.222-0.69,0.519-1.355,0.646-2.075c0.07-2.023-0.594-2.678-2.538-2.413c-1.078,0.147-1.989-0.011-2.61-0.993
	c-0.084-0.134-0.146-0.28-0.195-0.43c-0.039-0.146-0.056-0.299-0.06-0.449c0.002-0.073,0.009-0.149,0.01-0.222
	c0.008-0.143,0.026-0.286,0.048-0.428c0.007-0.07,0.021-0.141,0.028-0.21c0.01-0.14,0.031-0.278,0.051-0.417
	c0.007-0.07,0.018-0.141,0.023-0.209c0.011-0.144,0.032-0.284,0.056-0.427c0.014-0.073,0.029-0.143,0.044-0.215
	c0.096-0.367,0.229-0.715,0.397-1.055c0.077-0.142,0.169-0.272,0.271-0.398c0.73-0.825,1.99-1.326,1.673-2.778
	c-0.103-0.382-0.198-0.767-0.202-1.166c-0.001-0.235,0.021-0.467,0.048-0.699c0.011-0.154,0.031-0.306,0.054-0.46
	c0.007-0.158,0.026-0.314,0.04-0.472c-0.252-1.63,0.121-3.295-0.307-4.912c0.133-0.798,0.038-1.568-0.298-2.309
	c-0.145-1.842,0.257-3.616,0.684-5.387c0.221-0.409,0.442-0.818,0.583-1.264c0.101-0.286,0.204-0.57,0.285-0.861
	c0.133-0.437,0.208-0.883,0.209-1.342c0.016-0.318,0.074-0.629,0.125-0.943c-0.214-1.673,0.176-3.247,0.775-4.788
	c0.019-0.246,0.059-0.489,0.111-0.73c0.077-1.708,0.327-3.363,1.52-4.708c0.205-0.479,0.448-0.943,0.502-1.472
	c0.014-0.146,0.041-0.288,0.072-0.431c0.03-0.143,0.068-0.282,0.108-0.424c0.06-0.292,0.052-0.588,0.046-0.886
	c0-0.162,0.017-0.318,0.045-0.477c0.215-1.917,0.922-3.65,1.98-5.248c0.428-0.646,0.768-1.332,0.928-2.096
	c0.723-1.602,1.634-3.059,3.236-3.927c0.608-0.33,0.997-0.838,1.351-1.396c0.344-0.469,0.604-0.977,0.707-1.557
	c1.106-1.614,0.673-3.822,2.049-5.333c0.476-0.662,0.615-1.49,1.054-2.172c0.461-0.667,0.523-1.433,0.533-2.21
	c0.026-1.052,0.41-2.039,0.561-3.069c0.53-0.748,0.773-1.586,0.798-2.499c0.28-0.646,0.652-1.247,0.965-1.876
	c0.742-1.542,2.06-2.611,3.148-3.868c1.047-1.717,3.057-2.743,3.491-4.896c1.186-1.154,1.38-3.022,2.855-3.965
	c0.551-0.38,0.946-0.836,0.749-1.576c-0.097-0.811-0.216-1.622-0.055-2.438c0.129-0.802-0.509-0.616-0.922-0.712
	c-0.778-0.181-1.603-0.793-1.266-1.42c0.878-1.638-0.575-2.457-0.953-3.638c0.272-1.378-0.771-2.681-0.238-4.073
	c0.067-0.141,0.162-0.262,0.277-0.365c0.053-0.186,0.415,0.182,0.36-0.202c-0.056-0.14-0.097-0.283-0.136-0.429
	c-0.432-0.988,0.629-1.968,0.007-2.957c-0.705-1.729,0.364-3.121,0.932-4.788c-1.734,0.795-3.175,1.755-4.247,3.219
	c-0.264,0.571-0.619,1.068-1.162,1.408c-0.154,0.101-0.317,0.175-0.488,0.234c-0.352,0.109-0.709,0.16-1.079,0.122
	c-0.907-0.207-1.778-0.467-2.141-1.47c-0.093-0.354-0.052-0.709-0.002-1.063c0.004-1.183,0.086-2.361-0.077-3.551
	c-0.123-0.892,0.051-1.782,0.72-2.487c0.516-0.571,1.447-0.858,1.086-1.987c-0.176-0.552,0.418-0.807,0.884-0.919
	c1.162-0.276,1.645-0.773,1.013-2.015c-0.579-1.133-0.146-1.597,1.094-1.186c0.112,0.038,0.223,0.086,0.341,0.1
	c2.074,0.217,2.074,0.217,1.765,2.246c0.4,0.962-0.15,1.823-0.286,2.729c0.152,0.136-0.614,0.393,0.049,0.425
	c0.173,0.007,0.382-0.207,0.598-0.286c2.373-1.704,4.73-3.42,6.82-5.469c0.458-0.942,1.317-1.571,2.045-2.217
	c1.627-1.445,2.676-3.308,4.024-4.946c1.102-1.339,2.346-2.522,3.798-3.466c1.012-0.658,1.943-1.387,2.694-2.34
	c0.438-0.557,0.491-0.973-0.126-1.5c-1.107-0.947-1.05-0.977-0.284-2.128c0.69-1.036,1.167-2.19,2.054-3.12
	c0.519-0.543,1.033-1.012,1.741-1.178c1.053-0.247,1.761-0.976,2.507-1.65c1.037-0.936,2.007-1.944,3.06-2.86
	c0.811-0.707,1.776-1.188,2.714-1.722c2.464-1.4,4.579-3.201,5.572-6.003c-0.031-0.322,0.083-0.65,0.333-0.781
	c2.879-1.519,4.491-4.736,7.734-5.763c0.671,0.005,1.331-0.039,1.868-0.522c0.576,0.022,1.001-0.391,1.524-0.525
	c0.651-0.246,1.257-0.075,1.853,0.199c0.167,0,0.335,0.001,0.504,0.001c1.405,0.012,2.31-0.785,3.042-1.869
	c0.425-0.631,0.802-1.325,1.707-1.356c1.639-0.214,3.124-1.021,4.79-1.185c0.826-0.081,1.34-0.92,2.076-1.326
	c1.749-0.965,3.537-1.56,5.554-1.398c0.266,0.022,0.549-0.174,0.823-0.269c0.161-0.367,0.524-0.266,0.8-0.361
	c0.192-0.079,0.365-0.189,0.506-0.349c0.126-0.177,0.243-0.36,0.377-0.535c0.261-0.312,0.591-0.53,0.945-0.717
	c0.159-0.042,0.322-0.062,0.486-0.062c0.714-0.773,1.305-0.968,2.338-0.219c1.737,1.263,2.409,1.098,4.173-0.259
	c0.236-0.182,0.456-0.388,0.703-0.555c0.241-0.164,0.5-0.371,0.815-0.192c1.172,0.665,2.136,0.112,3.112-0.485
	c0.866-0.527,1.74-1.118,2.777-1.174c0.934-0.051,1.234-0.473,1.171-1.338c-0.021-0.284-0.176-0.583,0.018-0.866
	c0.139-0.303,0.33-0.514,0.705-0.404c0.155,0.191,0.106,0.413,0.089,0.627c0.038,0.118-0.024,0.202-0.103,0.28
	c0.126-0.01,0.158-0.087,0.096-0.231c0.031-0.21,0.052-0.419,0.077-0.631c0.135-0.187,0.33-0.265,0.545-0.311
	c0.075-0.082,0.167-0.136,0.273-0.163c0.23-0.014,0.339,0.093,0.33,0.322c-0.018,0.151-0.033,0.301-0.051,0.452
	c-0.106,0.998,0.915,1.748,0.617,2.788c-0.336,1.43,0.924,1.181,1.614,1.525c0.328,0.124,0.603,0.429,0.998,0.291
	c0.059-0.116,0.091-0.23,0.077-0.361c-0.448-0.805-0.665-1.569,0.333-2.127c0.065-0.257,0.065-0.257-0.722-0.381
	c-0.219-0.155-0.366-0.338-0.24-0.625c1.314-0.664,1.316-0.667,2.141,0.287c1.209,1.403,3.288,1.54,4.449,0.586
	c1.409-1.157,2.878-1.844,4.614-2.027c0.477-0.05,0.875-0.8,1.424-0.189c0.271,0.806,1.032,0.39,1.538,0.609
	c0.277,0.097,0.526,0.253,0.794,0.37c0.132,0.043,0.262,0.097,0.393,0.147c0.257,0.096,0.497,0.231,0.74,0.353
	c0.191,0.068,0.389,0.107,0.592,0.119c0.426,0.007,0.839,0.125,1.265,0.129c0.296-0.016,0.583-0.073,0.875-0.124
	c0.156-0.029,0.312-0.044,0.469-0.054c1.662-0.254,3.196-1.487,4.998-0.649c0.474,0.236,0.886,0.712,1.509,0.231
	c0.121-0.093,0.493,0.14,0.749,0.223c0.539-0.215,0.727,0.589,1.246,0.43c0.275-0.096,0.605-0.126,0.817-0.301
	c0.826-0.684,1.466-0.67,1.896,0.4c0.067,0.17,0.155,0.397,0.322,0.338c1.374-0.489,2.896,0.55,4.264-0.56
	c0.845-0.685,1.788,0.037,2.633,0.438c0.594,0.152,1.045,0.655,1.688,0.688c0.15,0.044,0.299,0.09,0.449,0.137
	c0.151,0.048,0.293,0.115,0.429,0.196c0.634,0.46,1.381,0.742,1.987,1.245c0.283,0.241,0.603,0.446,0.798,0.757
	c0.058,0.103,0.115,0.19,0.145,0.18c0.039-0.014,0.027-0.075-0.027-0.153c-0.006-0.137,0.042-0.23,0.152-0.301
	c0.067-0.024,0.125-0.041,0.19-0.059c0.069,0.019,0.133,0.037,0.201,0.056c0.579,0.227,0.792,0.857,1.298,1.16
	c0.13,0.072,0.24,0.169,0.335,0.284c0.183,0.234,0.407,0.424,0.639,0.608c0.295,0.242,0.545,0.527,0.783,0.822
	c0.189,0.228,0.368,0.463,0.575,0.677c0.208,0.196,0.438,0.372,0.647,0.569c0.099,0.103,0.182,0.218,0.252,0.341
	c0.131,0.252,0.305,0.471,0.536,0.644c0.124,0.095,0.231,0.201,0.332,0.317c0.459,1.797,1.825,1.969,3.342,1.872
	c0.237,0.062,0.44,0.221,0.695,0.231c0.604,0.304,1.208,0.035,1.812,0.002c0.432-0.126,0.872-0.32,1.24,0.134
	c0.197,0.083,0.384,0.185,0.573,0.284c0.126,0.055,0.25,0.119,0.371,0.183c0.187,0.088,0.374,0.177,0.568,0.256
	c0.137,0.047,0.267,0.107,0.393,0.178c0.342,0.159,0.741,0.152,1.062,0.37c0.269,0.175,0.471,0.412,0.636,0.684
	c0.268,0.524,0.492,1.08,1.023,1.413c0.116,0.073,0.229,0.156,0.336,0.241c0.106,0.066,0.211,0.133,0.311,0.192
	c0.065,0.075,0.1,0.114,0.1,0.114c0.075-0.093,0.094-0.197,0.056-0.313c0.001-0.004,0.135-0.116,0.137-0.116
	c0.002-0.001,0.169,0.062,0.169,0.062c0.26,0.072,0.427,0.389,0.754,0.287c0.802-0.555,1.224,0.153,1.746,0.526
	c0.43,0.545,0.858,1.09,1.287,1.634c-0.088,0.418-1.072,0.952,0.157,1.198c0.823,0.119,1.646,0.24,2.468,0.361
	c0.155,0.764-0.042,1.665,0.838,2.146c1.333,0.695,2.1,2.014,3.236,2.924c-0.003,0.118-0.055,0.266-0.003,0.347
	c1.75,2.754,2.919,5.862,5.107,8.346c0.337,0.247,0.678-0.267,1.014,0.005c0.194,0.268,0.259,0.645,0.635,0.759
	c0.131,0.032,0.26,0.025,0.388-0.019c0.389,0.077,0.714-0.852,1.148-0.072c0.77-0.506,1.18,1.037,2.023,0.33
	c0.593-0.495,1.338,0.89,1.979-0.076c0.025-0.038,0.319,0.078,0.474,0.152c1.346,0.654,1.477,0.559,2.585-0.539
	c0.792-0.785,1.958-0.849,3.006-1.061c0.341-0.069,0.659,0.221,0.89,0.52c0.292,0.379,0.592,0.751,0.896,1.118
	c0.304,0.366,0.619,0.721,0.929,1.081c0.608-0.565,1.309,0.177,1.961-0.153c0.683-0.345,1.399-0.648,2.13-0.867
	c1.828-0.545,3.711-0.9,5.327-2.046c0.986-0.699,1.548,0.184,2.12,0.816c0.682,0.442,1.023,1.185,1.554,1.759
	c0.353,0.446,0.706,0.892,1.059,1.338c0.163,0.217,0.378,0.407,0.376,0.711c0.021-0.31-0.201-0.494-0.361-0.713
	c-0.355-0.45-0.711-0.897-1.067-1.347c-0.424-0.665-1.128-1.14-1.337-1.952l-0.003-0.007c0.065-0.264,0.223-0.417,0.506-0.415
	c1.043-0.132,1.703,0.405,2.045,1.306c0.247,0.649,0.652,1.132,1.188,1.508c0.724,0.504,1.828,0.328,2.108-0.491
	c0.358-1.043,1.208-1.318,2.006-1.565c2.151-0.667,4.384-0.798,6.627-0.645c0.168,0.01,0.441,0.083,0.478,0.192
	c0.578,1.72,2.022,0.899,3,0.837c0.722-0.045,1.375,0.198,2.067,0.124c0.408-0.044,0.683,0.277,0.826,0.598
	c0.323,0.727,0.956,1.188,1.437,1.777c1.441,1.769,2.984,2.003,4.939,0.769c0.095-0.061,0.169-0.28,0.217-0.27
	c1.362,0.307,2.524-0.519,3.805-0.697c0.981-0.137,1.979,0.324,2.923-0.175c0.395-0.207,0.722-0.016,0.913,0.313
	c0.316,0.536,0.728-0.071,1.062,0.124c-0.074,0.741-0.589,1.472,0.176,2.205c0.152,0.145-0.89,0.806-0.099,1.356
	c-0.399,0.791-0.012,1.347,0.415,2.019c0.396,0.621,1.167,1.315,1.875,0.994c1.193-0.541,2.494-0.793,3.64-1.399
	c1.062-0.561,2.169-0.914,3.317-1.173c0.693-0.157,1.402-0.374,2,0.3c0.475,0.535,1.116,0.245,1.693,0.252
	c1.852,0.024,2.689,0.345,2.971,3.007c0.09,0.845,0.602,1.646,0.525,2.557c-0.008,0.092,0.105,0.27,0.18,0.281
	c1.16,0.163,2.044,1.376,3.478,0.679c0.952-0.463,2.131-0.463,3.221-0.397c1.404,0.085,1.401,0.132,1.745,1.604
	c0.173,0.748,1.033,1.396,1.803,1.316c0.408-0.042,0.807-0.18,1.214-0.239c1.368-0.197,2.578-0.233,3.67,1.033
	c0.597,0.69,1.472,1.598,2.742,1.305c0.301-0.069,0.508,0.256,0.704,0.488c0.322,0.384,0.364,1.015,1.271,0.729
	c0.47-0.149,0.981,0.787,1.179,1.385c0.294,0.89,0.902,1.649,1.01,2.615c0.061,0.534,0.311,0.844,0.965,0.526
	c0.736-0.358,1.617-0.469,2.285-0.913c1.509-1.001,3.404-0.38,4.919-1.312c0.338-0.208,0.92,0.031,1.111,0.361
	c0.841,1.437,2.267,0.844,3.109,0.514c1.046-0.412,1.489-0.039,2.116,0.625c-0.273,0.529-0.594,1.151-0.915,1.771
	c-0.18,0.091-0.338,0.214-0.501,0.322c-0.124,0.099-0.099,0.146,0.06,0.148c0.123,0.044,0.245,0.078,0.37,0.103
	c0.737-0.255,1.382-0.518,2.076,0.289c0.506,0.59,1.358,0.722,2.127,0.213c0.048-0.033,0.1-0.069,0.155-0.089
	c1.482-0.535,1.991-0.205,2.169,1.416c0.019,0.174,0.024,0.359-0.017,0.528c-0.197,0.827,0.23,1.23,0.949,1.035
	c1.193-0.32,2.411,0.162,3.607-0.301c0.769-0.297,1.295,0.395,1.783,0.918c0.23,0.04,0.318,0.172,0.265,0.4
	c0.708,0.927,1.9,1.384,3.015,1.412c1.238,0.031,2.311-0.242,3.369-0.903c0.834-0.521,1.768-1.03,2.819-0.884
	c0.661,0.092,0.918-0.835,1.605-0.528c0.232,0.032,0.313,0.162,0.242,0.386c-0.023,0.167-0.046,0.333-0.068,0.5
	c-0.002,0.258-0.199,0.374-0.374,0.503c0.186-0.107,0.354-0.273,0.601-0.184c0.171,0.151,0.506,0.164,0.429,0.518
	c0.009,0.259-0.139,0.376-0.373,0.417c0.212-0.004,0.38-0.184,0.6-0.159c0.231-0.008,0.57-0.118,0.675-0.006
	c0.7,0.746,1.557,0.493,2.385,0.449c1.041,0.463,1.283,1.406,1.444,2.4c-0.235,0.232-0.472,0.466-0.708,0.698
	c-0.476,0.67,0.021,1.12,0.432,1.482c0.588,0.517,0.974,1.13,1.247,1.841c0.407,0.675,1.102,1.23,0.581,2.208
	c-0.226,0.425,0.168,0.895,0.472,1.257c0.42,0.5,0.563,1.018,0.211,1.611c0.229,0.194,0.507,0.315,0.755,0.484
	c0.227,0.193,0.423,0.413,0.578,0.669c0.037,0.063,0.073,0.127,0.109,0.19c0.094,0.054,0.167,0.127,0.222,0.22
	c0.807,0.458,1.128,1.068,0.604,1.941c0.476,0.6,0.95,1.199,1.581,1.997c-1.104,0.147-1.69,0.839-2.578,1.204
	c0.579,1.029,1.315,2.036,1.312,3.309c-0.001,0.308,0.251,0.336,0.443,0.451c0.373,0.221,0.67,0.526,0.639,0.989
	c-0.097,1.43,0.52,2.567,1.423,3.595c1.083-0.879,1.083-0.879,2.01,0.492c0.105,0.357-0.031,0.53-0.399,0.532
	c0.287,0.143,0.475-0.331,0.771-0.129c-0.081,1.764,0.616,2.489,2.513,2.696c1.068,0.117,1.721,1.143,2.789,1.37
	c0.181,0.038,0.442,1.123-0.345,1.489c-0.479,0.189-0.509,0.605-0.526,1.029c0.028,0.159,0.005,0.384,0.1,0.463
	c0.127,0.103,2.997-0.361,3.434-0.489c0.939-0.038,0.399,1.146,1.087,1.317c2.36-0.163,2.941,1.855,3.898,3.31
	c0.364,0.552,0.542,1.28,1.161,1.913c-1.08,0.16-1.562,0.011-1.871-1c-0.479-1.569-0.57-1.373-2.244-1.018
	c-1.637,0.346-2.079,1.602-2.585,2.792c-0.451,1.063,0.111,1.692,1.287,1.694c0.236,0,0.475-0.057,0.71-0.101
	c1.841-0.354,1.811-0.298,2.504,1.341c0.289,0.686,0.187,0.806-0.412,1.152c-0.982,0.571-2.01,1.194-2.395,2.412
	c0.552,0.593,1.26,0.147,1.834,0.157c1.322,0.02,2.286,0.381,3.071,1.473c0.378,0.526,0.929,0.889,1.792,0.828
	c0.748-0.053,1.779,0.192,2.128,1.003c0.435,1.007,1.012,0.677,1.688,0.491c1.131-0.312,2.287-0.498,3.46-0.555
	c1.124-0.056,2.228-0.048,3.066,0.898c0.55,0.619,1.165,0.699,1.905,0.264c0.719-0.424,1.571-0.366,2.372-0.461
	c1.137-0.133,2.041,0.26,2.637,1.267c0.117,0.198,0.167,0.555,0.315,0.598c0.758,0.21,0.875,0.601,0.513,1.303
	c0.354-0.28,0.707-0.559,1.06-0.838c0.191-0.447,0.521-0.693,1.015-0.699c0.279,1.059-0.688,1.635-0.989,2.473
	c-0.133,0.372-0.442,0.722-0.509,1.125c-0.099,0.602-0.023,1.15,0.549,1.585c1.438,1.094,1.411,1.25-0.134,2.027
	c-0.104,0.053-0.197,0.133-0.295,0.2c-1.132-0.024-0.997-1.563-2.033-1.702c-0.163,0.954-0.797,1.369-1.611,1.376
	c-0.201,0.289-0.082,0.431-0.011,0.578c0.188,0.383,0.767,0.762,0.146,1.188c-0.628,0.432-0.736-0.326-1.068-0.568
	c-0.139-0.1-0.267-0.218-0.515-0.421c-0.258,0.718,0.11,1.82-1.086,1.865c-0.246-0.04-0.382-0.19-0.433-0.428
	c0.031,0.319,0.307,0.5,0.434,0.765c0.079,0.151,0.218,0.44,0.233,0.433c1.397-0.583,2.274,0.768,3.464,0.916
	c0.447,0.056,0.582,0.363,0.689,0.708c0.108,0.358-0.105,0.552-0.394,0.695c-1.612,0.798-1.812,2.312-1.959,3.856
	c-0.031,0.326,0.154,0.329,0.407,0.391c1.511,0.37,2.717,1.613,4.488,1.419c-0.505,1.273-0.95,2.4-1.41,3.562
	c0.561,0.437,1.316,0.679,1.427,1.62c0.052,0.447,0.131,0.824-0.18,1.14c-0.416,0.426-1.271,0.709-0.316,1.431
	c0.028,0.02-0.025,0.228-0.093,0.284c-1.113,0.915-1.108,2.592-2.335,3.427c-0.048,0.033-0.112,0.079-0.123,0.127
	c-0.367,1.883-2.093,2.734-3.131,4.108c-0.456,0.606-0.362,1.305,0.456,1.462c0.917,0.177,1.403,0.823,2.048,1.312
	c0.249,0.188,0.549,0.591,0.357,0.72c-1.205,0.815-0.243,2.838-2.031,3.207c0.483,1.001,0.829,1.849,2.002,1.878
	c0.205,0.005,0.4,0.413,0.601,0.636c0.576,0.248,0.655,0.694,0.497,1.238c-0.692,0.584-1.159,1.452-2.126,1.692l-0.008-0.034
	c-0.126,1.159-0.509,2.193-1.456,2.948c-0.137,0.704-0.79,1.071-1.088,1.67c0.052,0.915-0.889,1.178-1.216,1.843
	c-0.611,0.006-0.918,0.363-1.054,0.917c-0.665,1.238-1.495,2.308-2.466,3.361c-0.981,1.068-2.303,2.439-1.369,4.301
	c-0.554,1.19,0.599,2.62-0.529,3.74c-0.099,0.098-0.114,0.341-0.081,0.5c0.365,1.705-0.567,2.687-1.853,3.556
	c-1.188,0.804-2.258,1.762-3.078,2.961c-0.027,0.26,0.032,0.503,0.116,0.744c0.098,0.166,0.221,0.312,0.344,0.46
	c0.039,0.051,0.077,0.105,0.115,0.158c0.263,0.467,0.799,0.122,1.11,0.36c0.405,0.311,0.951,0.641,1.129,1.004
	c0.275,0.566-0.565,0.565-0.886,0.846c-0.828,0.732-0.697,2.171-1.936,2.611c-0.05,0.017,0.123,0.63,0.487,0.543
	c0.715-0.176,1.112,0.052,1.286,0.748c0.027,0.109,0.119,0.199,0.184,0.299c1.267-0.812,1.471,1.182,2.538,0.852
	c-0.049,0.646-0.634,0.876-0.729,1.379c-0.127,0.406-0.954,0.813-0.002,1.223c-0.371,0.249-0.842,0.345-0.959,0.92
	c-0.248,1.195-0.702,2.286-1.672,3.132c-0.467,0.407-0.394,1.111-0.862,1.688c-1.259,1.551-2.02,3.486-3.553,4.872
	c-0.356,0.322-0.422,0.828-0.53,1.284c-0.118,0.298,0.1,0.329,0.298,0.377c0.308,0.337,0.346,0.801,0.282,1.169
	c-0.079,0.457,0.053,0.566,0.414,0.785c0.794,0.483,0.984,2.077,0.275,2.291c-1.167,0.354-0.793,0.973-0.667,1.741
	c0.147,0.893,0.481,1.342,1.437,1.403c0.699,0.045,1.372,0.404,2.073,0.492c0.799,0.101,1.187,0.688,1.537,1.227
	c0.42,0.647,0.733,1.422-0.459,1.752c-0.372,0.104-0.483,0.502-0.586,0.853c-0.069,0.248,0.107,0.407,0.214,0.594
	c0.045,0.141,0.07,0.287,0.08,0.436c-0.052,0.44-0.07,0.883-0.033,1.328c-0.026,0.235-0.086,0.447-0.366,0.492
	c-1.142,0.227-1.592,1.297-2.073,2.072c-0.884,1.416-2.247,2.379-3.124,3.762c-0.094,0.146-0.27,0.238-0.378,0.376
	c-0.195,0.25-0.289,0.615-0.136,0.831c0.305,0.426,0.606,0.038,0.898-0.129c0.147-0.083,0.321-0.127,0.489-0.19
	c0.021,0.15,0.057,0.268,0.051,0.383c-0.047,0.925-1.382,1.498-0.722,2.62c-0.828,1.215-1.488,2.625-3.226,2.792
	c-0.88,0.085-1.538,0.607-2.18,1.145c-0.347,0.291-0.289,0.614-0.011,0.926c0.171,0.042,0.339,0.126,0.519,0.028l0.003-0.002
	c0.465,0.755-0.075,0.924-0.632,1.082l-0.004-0.003c-0.324-0.173-0.549,0.257-0.864,0.138c-0.317-0.396-0.677-0.421-1.067-0.111
	c-0.92,0.729-1.873,1.423-2.742,2.209c-0.46,0.416-0.833,0.929-0.681,1.688c0.096,0.479,0.165,1.079-0.415,1.421
	c-0.289,0.002-0.627-0.187-0.807,0.215c-0.067,0.826-1.284,1.049-1.056,2.106c0.061,0.285-0.662,0.361-1.027,0.531
	c-0.649,0.306-0.643,0.829-0.07,1.337c0.975,0.866,0.911,1.341-0.271,2.122c-0.3,0.198-0.569,0.424-0.683,0.797
	c-0.329,1.085-0.954,1.979-1.84,2.677c-0.159,0.127-0.204,0.267-0.276,0.42c-0.556,1.188-1.067,2.402-1.682,3.559
	c-0.458,0.863-0.726,1.864-1.583,2.475c-0.05,0.035-0.125,0.066-0.136,0.112c-0.693,2.776-3.272,3.324-5.338,4.425
	c-0.757,0.402-1.399,0.912-2.006,1.455c-0.449,0.401-0.829,0.908-0.75,1.701c0.054,0.525,0.057,1.194-0.297,1.723
	c-0.072,0.002-0.146,0.006-0.219,0.012c-0.211-0.046-0.414-0.123-0.617-0.191c-0.297-0.056-0.609-0.319-0.875,0.069
	c-0.172,0.223-0.364,0.419-0.573,0.601c-0.201,0.181-0.402,0.362-0.548,0.587c-0.046,0.092-0.083,0.193-0.089,0.29
	c0.114,0.012,0.211-0.002,0.311-0.061c0.196-0.069,0.386-0.068,0.578-0.004c0.206,0.13,0.32,0.302,0.284,0.55l-0.037,0.02
	c0.01,0.433-0.615,0.499-0.554,0.961c0.256,0.387,0.633,0.809,0.141,1.224c-0.443,0.372-0.129,0.898-0.388,1.284l0.004-0.021
	c0.098,0.19,0.057,0.361-0.07,0.521c-0.312,0.534-0.707,0.191-1.078,0.104c-0.155-0.062-0.312-0.136-0.484-0.143
	c-0.101,0.021-0.192,0.062-0.268,0.138c-0.096,0.145-0.126,0.309-0.163,0.476c-0.025,0.132-0.063,0.254-0.115,0.378
	c-0.064,0.129-0.14,0.246-0.224,0.359c-0.339,0.49-0.773,0.894-1.166,1.334c-0.541,1.295-1.46,2.271-2.584,3.076l0.007-0.034
	c0.105,0.203,0.311,0.485,0.138,0.633c-0.375,0.314-0.975,0.851-1.23,0.736c-1.638-0.732-1.079,0.498-1.146,1.18
	c-0.442,0.826-0.837,1.652-1.514,2.361c-0.722,0.759-0.757,1.744-0.157,2.674c0.288,0.077,0.597,0.13,0.628,0.515
	c-0.762,1.48-2.241,2.242-3.346,3.379c-0.702,0.725-1.72,1.077-2.115,2.231c-0.16,0.468-1.007,1.622-2.118,0.689
	c-0.242-0.205-0.552,0.089-0.732,0.34c-0.382,0.522-0.877,1.007-1.082,1.595c-0.122,0.353-0.198,0.386-0.505,0.438
	c-0.59,0.1-0.701,0.325-0.395,0.966c0.389,0.807,0.147,1.69-0.399,2.436c-0.059,0.662-0.51,0.515-0.905,0.452
	c-0.111-0.06-0.122-0.026-0.012,0.104c0.155,0.184-0.036-0.095,0.122,0.1c0.525,0.448,0.91,0.958,0.896,1.68
	c-0.231,0.919-1.508,0.865-1.715,1.826c-0.014,0.057-0.379,0.137-0.461,0.066c-1.042-0.881-1.797,0.103-2.552,0.469
	c-1.107,0.541-2.144,1.205-3.396,1.374c-0.753,0.101-0.875,0.488-0.502,1.116c0.24,0.402,0.479,0.816,0.646,1.251
	c0.188,0.487-0.119,0.621-0.548,0.598c-0.386,0.004-0.64-0.259-0.907-0.462c-0.195-0.117,0.116-0.11-0.116-0.062
	c-0.171,0.034-0.154,0.111,0.024,0.124c0.077,0.106,0.104,0.217,0.085,0.345c-0.039,0.135-0.099,0.252-0.178,0.364
	c-0.138,0.171-0.299,0.31-0.479,0.427c-0.125,0.078-0.256,0.138-0.389,0.191c-0.263,0.095-0.522,0.192-0.737,0.379
	c-0.091,0.112-0.18,0.222-0.259,0.341c-0.117,0.692-0.12,1.386-0.089,2.079c-0.132,0.304-0.148,0.662-0.565,0.798
	c-0.419,0.137-0.354,0.536-0.343,0.88c-0.011,0.196-0.048,0.387-0.127,0.566c-0.065,0.185-0.122,0.373-0.167,0.564
	c-0.058,0.198-0.141,0.373-0.38,0.399c-0.343,0.079-0.688,0.156-1.031,0.235c-0.023,0.213-0.668-0.398-0.356,0.268
	c-0.008,0.347-0.016,0.695-0.022,1.043c-0.003,0.183-0.044,0.335-0.27,0.314c-0.185-0.016-0.371-0.13-0.296-0.306
	c0.143-0.325,0.15-0.588-0.239-0.628c-0.202-0.021-0.491,0.106-0.62,0.265c-0.217,0.263-0.337,0.604-0.498,0.915
	c-0.097,0.061-0.182,0.156-0.148,0.245c0.066,0.176,0.239,0.099,0.371,0.106c0.642,0.421,0.635,1.212,1.017,1.786
	c0.314,0.475,0.003,0.906-0.337,1.231c-0.352,0.338-0.496,0.638-0.103,1.022c0.006,0.138-0.036,0.224-0.126,0.258
	c-0.091,0.033-0.148,0.036-0.171,0.008c-0.544,0.141-0.77,1.092-1.615,0.578c-0.158-0.098-0.732,0.21-0.561,0.814
	c0.131,0.463-0.198,0.749-0.681,0.805c-0.163,0.005-0.312-0.04-0.439-0.138c-0.994-1.23,0.052,0.837-0.504,0.317
	c-0.229,0.19-0.494,0.339-0.725,0.527c-0.206,0.166-0.443,0.282-0.655,0.425c-0.071,0.062-0.126,0.14-0.14,0.232
	c0.071,0.075,0.151,0.109,0.258,0.094c0.119-0.021,0.229-0.027,0.347-0.026c0.197,0.008,0.376,0.056,0.524,0.188
	c0.52,0.754,0.476,1.321-0.534,1.533c-0.489,0.102-0.892,0.282-1.131,0.764c-0.552,1.097-1.633,1.239-2.667,1.345
	c-1.284,0.133-2.097,0.594-2.174,1.81c-0.071,1.147-0.614,1.573-1.586,1.798c-0.763,0.174-1.074,0.396-0.921,1.449
	c0.172,1.193-1.192,1.816-2.134,2.344c-1,0.561-1.938,1.104-2.586,2.079c-0.749,1.124-1.783,2.061-2.192,3.403
	c-0.048,0.156-0.075,0.394-0.31,0.279c-0.987-0.479-1.479,0.549-2.252,0.74c-0.572,0.143-0.672,0.658-0.16,1.026
	c0.532,0.382,0.397,0.661,0.151,1.166c-0.452,0.93-1.229,1.609-1.719,2.497c-0.195,0.349-0.548,0.406-0.926,0.427
	c-1.176,0.057-2.038,0.87-3.053,1.319c-0.25,0.11-0.568,0.409-0.589,0.646c-0.148,1.65-1.692,2.018-2.666,2.859
	c-0.529,0.457-1.031,0.976-1.61,1.392c-0.532,0.383-0.767,1.045-0.649,1.588c0.104,0.479,0.342,1.016-0.011,1.298
	c-0.294,0.236-0.863,0.218-1.336,0.043c-0.28-0.104-0.382,0.181-0.455,0.408l0.02,0.002c-1.134-0.323-1.134-0.323-2.533-2.246
	c-0.252,0.979-1.15,1.707-0.377,2.76c0.249,0.341,0.13,0.666-0.146,0.959c-0.318,0.336-0.782,0.533-0.969,1.012
	c0.946,0.943,1.514-0.477,2.355-0.456c0.178,0.95-1.37,1.448-0.508,2.432c0.11,0.273,0.064,0.563,0.11,0.842
	c0.058,0.176,0.096,0.366,0.314,0.417c0.125-0.026,0.249-0.029,0.374-0.017c0.12,0.049,0.225,0.121,0.312,0.214
	c0.074,0.102,0.122,0.215,0.151,0.334c0.01,0.188-0.006,0.379,0.057,0.562c0.093,0.096,0.188,0.181,0.301,0.247
	c0.169,0.098,0.323,0.218,0.494,0.315c0.109,0.074,0.195,0.17,0.258,0.289c0.005,0.134-0.02,0.263-0.065,0.389
	c-0.079,0.186-0.185,0.353-0.341,0.483c-0.433,0.708-0.764,1.258-1.72,0.404c-0.437-0.389-1.338-0.34-1.873-0.861
	c-0.182-0.18-0.408-0.29-0.583-0.03c-0.312,0.468-0.687,0.317-1.102,0.21c-0.28-0.072-0.626-0.136-0.876-0.037
	c-1.305,0.517-2.509,1.414-4.041,0.939c-0.466,1.117-1.962,1.269-2.349,2.357c-0.34,0.956-1.104,1.548-1.608,2.352
	c-0.842,1.344-0.707,2.496,0.5,3.55c0.847,0.736,2.243,1.365,1.459,2.97c0.03,0.142,0.001,0.229-0.084,0.262
	c-0.093,0.036-0.15,0.04-0.174,0.009c-0.357,0.051-0.691,0.02-1.019-0.165c-1.34-0.757-1.566-0.769-2.414,0.479
	c-0.535,0.789-1.163,1.318-2.055,1.553c-0.336,0.088-0.736,0.218-1.006-0.103c-0.687-0.816-1.696-0.726-2.584-0.978
	c-0.432-0.763-0.87-0.845-1.313-0.01c-0.066,1.652-0.062,1.679-1.596,1.866c-1.027,0.125-1.351,0.97-1.504,1.689
	c-0.188,0.888-0.627,1.189-1.371,1.617c-0.922,0.53-2.108,0.823-2.603,2.043c-0.263,0.653-1.242,0.226-1.74,0.697
	c-0.93,0.191-1.969,0.095-2.631,0.992c0.337,1.327-0.011,2.139-1.47,2.538c-0.834,0.227-1.507,0.953-1.18,2.05
	c-0.335,0.717-0.793,1.404-0.539,2.261c0.408,1.079,1.438,1.774,1.765,2.914c0.101,0.35,0.271,0.633-0.106,0.891
	c-0.411-0.038-0.865-0.082-1.103-0.438c-0.847-1.271-2.18-1.797-3.489-2.37c-0.289-0.234-0.632-0.196-0.969-0.188l-0.001-0.001
	c-0.329-0.021-0.505,0.178-0.628,0.447l-0.001,0.011c0.026,0.164,0.118,0.274,0.282,0.319l0.004-0.002
	c0.166,0.001,0.332,0.001,0.5,0.004l0.027,0.007c0.144,0.036,0.218,0.131,0.234,0.273c-0.127,0.643-0.265,1.174-1.11,1.331
	c-0.49,0.093-0.93,0.621-1.327,1.022c-0.516,0.519-1.144,0.798-1.811,1.034c-1.153,0.354-2.359,0.324-3.447,1.214
	C241.202,432.81,239.75,432.475,238.757,432.596z"/>
</svg>
