<?xml version="1.0" standalone="no"?>
<!DOCTYPE svg PUBLIC "-//W3C//DTD SVG 20010904//EN"
 "http://www.w3.org/TR/2001/REC-SVG-20010904/DTD/svg10.dtd">
<svg version="1.0" xmlns="http://www.w3.org/2000/svg"
 width="580.000000pt" height="580.000000pt" viewBox="0 0 580.000000 580.000000"
 preserveAspectRatio="xMidYMid meet">
<metadata>
Created by potrace 1.11, written by Peter Selinger 2001-2013
</metadata>
<g transform="translate(0.000000,580.000000) scale(0.100000,-0.100000)"
fill="#000000" stroke="none">
<path d="M1400 5564 c-52 -14 -103 -33 -112 -42 -9 -9 -39 -69 -66 -132 -27
-63 -143 -331 -257 -595 -114 -264 -227 -527 -252 -585 -24 -58 -50 -119 -58
-136 -62 -134 -114 -269 -108 -274 12 -10 195 -88 224 -95 23 -6 27 -3 33 20
4 14 17 49 30 78 31 68 90 204 276 637 84 195 156 358 159 362 3 4 6 -1015 6
-2265 l0 -2272 100 -26 c132 -34 165 -40 165 -31 0 4 32 69 71 142 129 245
181 343 262 495 44 83 100 188 125 235 24 47 61 117 82 155 21 39 60 113 87
165 27 52 110 208 182 345 73 138 158 297 188 355 31 58 68 128 83 155 15 28
58 109 95 180 38 72 74 138 81 148 10 16 21 1 84 -120 40 -76 87 -165 105
-198 40 -74 192 -362 270 -510 32 -60 65 -123 75 -140 10 -16 48 -88 85 -160
38 -71 144 -274 238 -450 93 -176 192 -363 219 -415 28 -52 67 -126 88 -165
21 -38 54 -101 75 -140 20 -38 40 -73 44 -77 3 -4 42 2 86 13 44 12 89 23 100
25 11 2 32 6 46 9 l27 6 -1 785 c0 431 2 786 5 789 2 2 19 -30 37 -73 18 -42
157 -356 309 -697 329 -742 305 -689 307 -695 5 -17 36 -80 39 -80 9 0 232
102 240 110 6 6 5 14 -1 22 -5 7 -16 29 -23 48 -8 19 -28 67 -46 105 -17 39
-82 185 -144 325 -207 468 -431 975 -445 1005 -90 200 -225 510 -225 517 0 5
39 75 87 156 47 81 109 185 136 232 27 47 52 90 57 95 4 6 19 30 33 55 13 25
115 198 226 384 183 309 201 344 202 388 1 26 2 54 3 61 2 13 -20 66 -84 202
-76 161 -202 429 -230 490 -15 33 -81 173 -145 310 -65 138 -143 306 -175 375
-155 336 -166 356 -196 367 -16 6 -71 21 -122 33 -80 19 -96 21 -106 9 -8 -8
-44 -72 -81 -144 -37 -71 -83 -157 -100 -190 -30 -56 -224 -421 -352 -665 -31
-58 -68 -127 -83 -155 -15 -27 -50 -94 -79 -147 -98 -187 -154 -294 -226 -428
-40 -74 -103 -193 -140 -265 -38 -71 -81 -152 -96 -180 -15 -27 -45 -85 -66
-127 -21 -42 -42 -76 -46 -75 -11 3 -18 15 -222 402 -32 61 -72 137 -90 170
-18 33 -99 186 -180 340 -81 154 -165 312 -185 350 -21 39 -57 106 -80 150
-23 44 -62 117 -86 163 -86 162 -132 249 -195 367 -34 66 -83 158 -109 205
-25 47 -63 120 -85 162 -46 90 -38 87 -175 52z m245 -769 c37 -71 82 -157 100
-190 18 -33 58 -109 90 -170 32 -60 70 -132 85 -160 15 -27 58 -108 95 -180
37 -71 71 -134 75 -140 4 -5 47 -86 95 -180 48 -93 91 -174 95 -180 4 -5 38
-68 75 -140 38 -71 80 -152 95 -180 15 -27 55 -104 90 -170 35 -66 74 -140 87
-163 l24 -44 -66 -123 c-35 -68 -75 -143 -88 -167 -22 -39 -54 -101 -185 -348
-113 -215 -160 -304 -222 -420 -37 -69 -100 -188 -141 -265 -40 -77 -86 -162
-100 -190 -15 -27 -52 -97 -83 -155 -30 -58 -75 -143 -100 -190 -25 -47 -60
-113 -78 -147 -18 -34 -34 -61 -36 -59 -2 3 -4 3685 -2 4091 0 47 1 49 13 25
8 -14 44 -83 82 -155z m2420 -1911 c0 -1135 -1 -2064 -2 -2064 -1 0 -50 91
-109 203 -59 111 -119 225 -134 252 -15 28 -52 97 -82 155 -74 141 -142 269
-191 360 -22 41 -60 113 -85 160 -57 107 -111 210 -161 303 -21 39 -64 122
-96 182 -68 130 -118 224 -191 362 l-55 101 24 44 c13 23 48 88 77 143 29 55
90 170 135 255 45 85 105 198 132 250 28 52 66 124 85 160 37 68 188 354 278
525 29 55 73 138 98 185 40 77 61 115 152 285 15 28 46 87 70 132 24 46 46 80
49 77 3 -3 6 -935 6 -2070z m535 1426 c137 -294 250 -541 250 -548 0 -7 -59
-113 -132 -235 -72 -122 -185 -315 -252 -428 -67 -114 -123 -205 -125 -203 -3
3 -5 1859 -2 1938 1 11 3 17 6 15 2 -3 117 -246 255 -539z"/>
</g>
</svg>
